<svg xmlns="http://www.w3.org/2000/svg"  viewBox="0 0 50 50" width="100px" height="100px"><path d="M 8.984375 4.9863281 A 1.0001 1.0001 0 0 0 8.421875 5.1699219 A 1.0001 1.0001 0 0 0 8.4179688 5.171875 L 4.5527344 7.1054688 A 1.0001 1.0001 0 0 0 4 8 L 4 20 A 1.0001 1.0001 0 0 0 4.4003906 20.800781 L 6.2421875 22.181641 L 5.1289062 22.255859 L 5.125 22.255859 A 1.0001 1.0001 0 0 0 4 23.462891 L 4 38 A 1.0001 1.0001 0 0 0 4.2929688 38.707031 L 8.2050781 42.619141 A 1.0001 1.0001 0 0 0 9.28125 42.972656 L 24.132812 40.992188 A 1.0001 1.0001 0 0 0 25 40 L 25 38.880859 L 27.275391 40.701172 A 1.0001 1.0001 0 0 0 28.300781 40.966797 A 1.0001 1.0001 0 0 0 28.310547 40.964844 L 42.140625 38.990234 A 1.0001 1.0001 0 0 0 43 38 L 43 24.945312 A 1.0001 1.0001 0 0 0 42.240234 23.773438 L 37.912109 22.271484 L 42.066406 21.998047 A 1.0001 1.0001 0 0 0 43 21 L 43 6 A 1.0001 1.0001 0 0 0 42 5 L 28.154297 5 A 1.0001 1.0001 0 0 0 27.984375 4.9863281 A 1.0001 1.0001 0 0 0 27.492188 5.1269531 L 25 6.1230469 L 25 6 A 1.0001 1.0001 0 0 0 24 5 L 9.1542969 5 A 1.0001 1.0001 0 0 0 8.984375 4.9863281 z M 10 7 L 23 7 L 23 19.337891 A 1.0001 1.0001 0 0 0 23 19.828125 L 23 21.205078 L 22.25 21.248047 A 1.0001 1.0001 0 0 0 22.236328 21.246094 A 1.0001 1.0001 0 0 0 22.025391 21.259766 L 18.824219 21.441406 A 1.0001 1.0001 0 0 0 18.724609 21.441406 A 1.0001 1.0001 0 0 0 18.613281 21.453125 L 10 21.941406 L 10 7 z M 29 7 L 41 7 L 41 20.064453 L 29 20.855469 L 29 7 z M 27 7.4765625 L 27 20.1875 L 25 19.025391 L 25 8.2773438 L 27 7.4765625 z M 8 7.6171875 L 8 21 L 6 19.5 L 6 8.6171875 L 8 7.6171875 z M 32.898438 22.650391 L 36.945312 24.054688 L 28.238281 24.582031 L 25.607422 23.060547 L 27.886719 22.931641 A 1.0001 1.0001 0 0 0 28.224609 22.912109 L 32.898438 22.650391 z M 18.529297 23.460938 L 20.808594 24.833984 L 9.3417969 25.720703 L 7.484375 24.103516 L 8.9042969 24.007812 A 1.0001 1.0001 0 0 0 9.2226562 23.988281 L 18.529297 23.460938 z M 24.648438 24.816406 L 27 26.173828 L 27 37.919922 L 25 36.320312 L 25 25.748047 A 1.0001 1.0001 0 0 0 24.648438 24.816406 z M 6 25.462891 L 8 27.205078 L 8 39.585938 L 6 37.585938 L 6 25.462891 z M 41 25.8125 L 41 37.132812 L 29 38.847656 L 29 26.539062 L 41 25.8125 z M 23 26.671875 L 23 36.582031 A 1.0001 1.0001 0 0 0 23 36.986328 L 23 39.125 L 10 40.857422 L 10 27.675781 L 23 26.671875 z"/></svg>